# xmcd CD database file
#
# Track frame offsets:
#	150
#	16942
#	33248
#	48962
#	66629
#	81202
#	96467
#	120855
#	145261
#	163905
#
# Disc length: 2460 seconds
#
# Revision: 1
# Processed by: cddbd v1.5.2PL0 Copyright (c) Steve Scherf et al.
# Submitted via: CDex 1.70beta2
#
DISCID=83099a0a
DTITLE=キリト - Hameln
DYEAR=2005
DGENRE=Vocal
TTITLE0=Hameln
TTITLE1=DOOR
TTITLE2=PLOT
TTITLE3=INTER CUTTER
TTITLE4=Ray
TTITLE5=A waking bud
TTITLE6=誰もいない丘
TTITLE7=再生の朝(Album Version)
TTITLE8=THE SUN
TTITLE9=EXIT
EXTD=YEAR: 2005
EXTT0=
EXTT1=
EXTT2=
EXTT3=
EXTT4=
EXTT5=
EXTT6=
EXTT7=
EXTT8=
EXTT9=
PLAYORDER=
